<?xml version="1.0" encoding="UTF-8" standalone="no"?>
<!-- Created with Inkscape (http://www.inkscape.org/) -->

<svg
   version="1.1"
   id="svg2"
   width="2000"
   height="2000"
   viewBox="0 0 2000 2000"
   sodipodi:docname="Nara-Logo-Rose-Gold-Flat-Digital.eps"
   xmlns:inkscape="http://www.inkscape.org/namespaces/inkscape"
   xmlns:sodipodi="http://sodipodi.sourceforge.net/DTD/sodipodi-0.dtd"
   xmlns="http://www.w3.org/2000/svg"
   xmlns:svg="http://www.w3.org/2000/svg">
  <defs
     id="defs6" />
  <sodipodi:namedview
     id="namedview4"
     pagecolor="#ffffff"
     bordercolor="#000000"
     borderopacity="0.25"
     inkscape:showpageshadow="2"
     inkscape:pageopacity="0.0"
     inkscape:pagecheckerboard="0"
     inkscape:deskcolor="#d1d1d1" />
  <g
     id="g8"
     inkscape:groupmode="layer"
     inkscape:label="ink_ext_XXXXXX"
     transform="matrix(1.3333333,0,0,-1.3333333,0,2000)">
    <g
       id="g10"
       transform="scale(0.1)">
      <path
         d="M 14997.7,-2.69922 H -2.30859 V 14997.3 H 14997.7 V -2.69922"
         style="fill:#000000;fill-opacity:1;fill-rule:nonzero;stroke:none"
         id="path12" />
      <path
         d="m 5424.58,7342.7 5.14,-1134.02 -1038.09,1144.31 v -154.2 l -15.42,-1277.91 h 71.95 l -5.14,1132.33 1038.1,-1144.31 v 114.78 l 15.41,1319.02 h -71.95"
         style="fill:#f99a95;fill-opacity:1;fill-rule:nonzero;stroke:none"
         id="path14" />
      <path
         d="M 6731.62,7382.1 6101.21,5920.88 h 82.25 l 483.06,1200.83 520.77,-1200.83 h 190.14 L 6731.62,7382.1"
         style="fill:#f99a95;fill-opacity:1;fill-rule:nonzero;stroke:none"
         id="path16" />
      <path
         d="m 8406.41,6592.39 c 121.61,6.84 215.82,44.54 282.65,109.64 68.5,66.81 102.78,154.16 102.78,263.81 0,118.19 -37.71,210.7 -113.07,277.49 -75.36,66.83 -179.88,99.37 -313.5,99.37 H 7956.88 V 5920.88 h 179.88 V 7291.3 h 233.66 c 114.78,0 203.86,-27.39 267.24,-85.65 61.67,-58.24 94.22,-137.03 94.22,-239.81 0,-99.37 -30.84,-178.16 -92.51,-236.42 -61.66,-58.21 -147.31,-87.36 -255.23,-87.36 h -159.3 l -37.78,0.75 476.3,-721.93 h 193.57 l -450.52,671.51"
         style="fill:#f99a95;fill-opacity:1;fill-rule:nonzero;stroke:none"
         id="path18" />
      <path
         d="M 9968.68,7382.1 9338.3,5920.88 h 82.22 L 9903.59,7121.71 10426,5920.88 h 188.5 L 9968.68,7382.1"
         style="fill:#f99a95;fill-opacity:1;fill-rule:nonzero;stroke:none"
         id="path20" />
      <path
         d="m 8360.89,8301.28 c -66.64,-40.85 -134.89,-76.32 -204.43,-106.2 -451.65,-194.12 -890.62,-112.75 -1304.32,242.16 254.63,221.2 535.48,336.43 835.04,342.66 5.59,0 11.29,0.11 16.77,0.11 283.43,0 562.03,-111.68 851.49,-341.05 -62.88,-51.05 -127.91,-97.06 -194.55,-137.68 z m -1979.53,701.11 c 105.23,-31.17 201.42,-97.38 272.69,-188.2 65.88,-85.13 108.56,-189.93 127.15,-311.49 -147.36,138.65 -285.05,310.63 -399.84,499.69 z m 396.62,-632 c -5.81,-42.14 -16.23,-84.81 -30.96,-127.16 l -0.11,-0.21 c -52.88,-162.41 -177.13,-296.01 -332.45,-357.82 -9.67,-3.97 -21.17,-8.38 -33.42,-12.03 115.54,188.42 252.26,359.32 396.94,497.22 z m 1899.45,101.03 c -156.07,125.33 -305.36,217.66 -455.95,282.04 -600.51,265.59 -1089.67,8.71 -1397.82,-259.25 -6.02,53.96 -17.52,107.16 -34.61,158 -66.75,223.57 -266.46,394.68 -497.01,425.74 l -17.41,2.37 27.73,-47.83 c 136.93,-237.86 291.28,-438.11 459.06,-595.25 -91.36,-83.94 -177.45,-180.25 -263.33,-294.5 -84.27,-109.64 -154.57,-218.2 -214.76,-331.81 l -8.06,-15.04 16.99,2.47 c 157.03,24.29 302.03,110.92 397.79,238.07 70.51,93.73 116.52,212.5 133.5,344.49 159.93,-138.01 331.16,-240.44 509.47,-304.5 119.2,-42.46 245.17,-63.85 374.58,-63.85 405.54,0 750.35,213.47 968.11,392.43 l 40.37,33.48 -38.65,32.94"
         style="fill:#f99a95;fill-opacity:1;fill-rule:nonzero;stroke:none"
         id="path22" />
    </g>
  </g>
</svg>
